<mxfile host="app.diagrams.net" modified="2024-05-22T02:31:31.243Z" agent="Mozilla/5.0 (Windows NT 10.0; Win64; x64; rv:126.0) Gecko/20100101 Firefox/126.0" etag="y6TCiflHZQ2UaPh4ptMS" version="24.4.4" type="github">
  <diagram name="Page-1" id="doaNbLGYiiKzRFzNWdXi">
    <mxGraphModel dx="794" dy="495" grid="1" gridSize="10" guides="1" tooltips="1" connect="1" arrows="1" fold="1" page="1" pageScale="1" pageWidth="850" pageHeight="1100" math="0" shadow="0">
      <root>
        <mxCell id="0" />
        <mxCell id="1" parent="0" />
        <mxCell id="KtZ6byTwQnFwZSQ_47y7-5" value="" style="endArrow=classic;html=1;rounded=0;exitX=0.5;exitY=1;exitDx=0;exitDy=0;" edge="1" parent="1" source="KtZ6byTwQnFwZSQ_47y7-1" target="KtZ6byTwQnFwZSQ_47y7-6">
          <mxGeometry width="50" height="50" relative="1" as="geometry">
            <mxPoint x="390" y="300" as="sourcePoint" />
            <mxPoint x="170" y="250" as="targetPoint" />
          </mxGeometry>
        </mxCell>
        <mxCell id="KtZ6byTwQnFwZSQ_47y7-8" value="" style="group" vertex="1" connectable="0" parent="1">
          <mxGeometry x="440" y="50" width="120" height="80" as="geometry" />
        </mxCell>
        <mxCell id="KtZ6byTwQnFwZSQ_47y7-1" value="" style="ellipse;whiteSpace=wrap;html=1;" vertex="1" parent="KtZ6byTwQnFwZSQ_47y7-8">
          <mxGeometry width="120" height="80" as="geometry" />
        </mxCell>
        <mxCell id="KtZ6byTwQnFwZSQ_47y7-2" value="120VAC Source" style="text;html=1;align=center;verticalAlign=middle;whiteSpace=wrap;rounded=0;" vertex="1" parent="KtZ6byTwQnFwZSQ_47y7-8">
          <mxGeometry x="30" y="25" width="60" height="30" as="geometry" />
        </mxCell>
        <mxCell id="KtZ6byTwQnFwZSQ_47y7-9" value="" style="group" vertex="1" connectable="0" parent="1">
          <mxGeometry x="440" y="160" width="120" height="80" as="geometry" />
        </mxCell>
        <mxCell id="KtZ6byTwQnFwZSQ_47y7-6" value="" style="ellipse;whiteSpace=wrap;html=1;" vertex="1" parent="KtZ6byTwQnFwZSQ_47y7-9">
          <mxGeometry width="120" height="80" as="geometry" />
        </mxCell>
        <mxCell id="KtZ6byTwQnFwZSQ_47y7-7" value="&lt;div&gt;Power Strip&lt;/div&gt;" style="text;html=1;align=center;verticalAlign=middle;whiteSpace=wrap;rounded=0;" vertex="1" parent="KtZ6byTwQnFwZSQ_47y7-9">
          <mxGeometry x="30" y="25" width="60" height="30" as="geometry" />
        </mxCell>
        <mxCell id="KtZ6byTwQnFwZSQ_47y7-16" value="" style="group" vertex="1" connectable="0" parent="1">
          <mxGeometry x="590" y="270" width="120" height="80" as="geometry" />
        </mxCell>
        <mxCell id="KtZ6byTwQnFwZSQ_47y7-13" value="" style="ellipse;whiteSpace=wrap;html=1;" vertex="1" parent="KtZ6byTwQnFwZSQ_47y7-16">
          <mxGeometry width="120" height="80" as="geometry" />
        </mxCell>
        <mxCell id="KtZ6byTwQnFwZSQ_47y7-14" value="Text" style="text;html=1;align=center;verticalAlign=middle;whiteSpace=wrap;rounded=0;container=0;" vertex="1" collapsed="1" parent="KtZ6byTwQnFwZSQ_47y7-16">
          <mxGeometry x="30" y="25" width="60" height="30" as="geometry">
            <mxRectangle x="320" y="275" width="60" height="30" as="alternateBounds" />
          </mxGeometry>
        </mxCell>
        <mxCell id="KtZ6byTwQnFwZSQ_47y7-17" value="" style="endArrow=none;html=1;rounded=0;" edge="1" parent="1">
          <mxGeometry width="50" height="50" relative="1" as="geometry">
            <mxPoint x="140" y="74.5" as="sourcePoint" />
            <mxPoint x="260" y="74.5" as="targetPoint" />
          </mxGeometry>
        </mxCell>
        <mxCell id="KtZ6byTwQnFwZSQ_47y7-18" value="&lt;div&gt;Power&lt;/div&gt;" style="text;html=1;align=center;verticalAlign=middle;whiteSpace=wrap;rounded=0;" vertex="1" parent="1">
          <mxGeometry x="80" y="60" width="60" height="30" as="geometry" />
        </mxCell>
        <mxCell id="KtZ6byTwQnFwZSQ_47y7-20" value="" style="endArrow=none;dashed=1;html=1;rounded=0;" edge="1" parent="1">
          <mxGeometry width="50" height="50" relative="1" as="geometry">
            <mxPoint x="140" y="50" as="sourcePoint" />
            <mxPoint x="250" y="50" as="targetPoint" />
          </mxGeometry>
        </mxCell>
      </root>
    </mxGraphModel>
  </diagram>
</mxfile>
